<svg width="48" height="48" viewBox="0 0 48 48" fill="none" xmlns="http://www.w3.org/2000/svg">
<circle opacity="0.75" cx="24" cy="24" r="24" fill="white"/>
<g clip-path="url(#clip0_69_6046)">
<path d="M18.998 39.332C19.132 38.8236 19.564 37.305 19.6647 35.332" stroke="#1D0A32" stroke-width="1.33333" stroke-linecap="round" stroke-linejoin="round"/>
<path d="M22.6816 18.8103C22.6816 18.8103 24.8683 18.0837 26.1136 18.4997C27.0216 18.8023 27.6656 19.5117 27.6656 19.5117" stroke="#1D0A32" stroke-width="1.33333" stroke-linecap="round" stroke-linejoin="round"/>
<path d="M31.6663 39.3331C31.4258 38.6769 30.5297 32.8453 30.3262 29.0078" stroke="#1D0A32" stroke-width="1.33333" stroke-linecap="round" stroke-linejoin="round"/>
<path d="M23.1887 35.0667C22.2214 35.4854 19.4227 35.4134 18.576 34.8634C17.74 34.3207 17.344 33.6994 16.4287 31.71C15.5134 29.7194 14.2247 27.2427 14.3454 24.9607C14.44 23.1747 14.7334 21.566 14.332 19.3427C14.332 19.3427 15.668 18.6934 17.2574 18.6934C19.0734 18.6934 20.368 20.264 19.096 24.8327C18.898 25.5447 18.2854 26.7807 19.018 27.3327C19.876 27.98 21.314 26.798 21.314 26.798" stroke="#1D0A32" stroke-width="1.33333" stroke-linecap="round" stroke-linejoin="round"/>
<path d="M30.3262 28.9018C32.8642 30.0085 33.9135 22.0085 32.7788 21.7838C32.0588 21.6411 31.0822 22.5258 30.3262 23.3418" stroke="#1D0A32" stroke-width="1.33333" stroke-linecap="round" stroke-linejoin="round"/>
<path d="M19.6602 30.1234C21.2735 30.4548 22.9555 30.2788 24.3368 28.8848" stroke="#1D0A32" stroke-width="1.33333" stroke-linecap="round" stroke-linejoin="round"/>
<path fill-rule="evenodd" clip-rule="evenodd" d="M24.7001 22.0627C24.7001 22.2747 24.5361 22.4467 24.3348 22.4467C24.1308 22.4467 23.9668 22.2747 23.9668 22.0627C23.9668 21.8507 24.1308 21.6787 24.3348 21.6787C24.5361 21.6787 24.7001 21.8507 24.7001 22.0627Z" fill="#1D0A32" stroke="#1D0A32" stroke-width="1.33333" stroke-linecap="round" stroke-linejoin="round"/>
<path fill-rule="evenodd" clip-rule="evenodd" d="M17.3661 22.0617C17.3661 22.2737 17.2021 22.4457 17.0008 22.4457C16.7968 22.4457 16.6328 22.2737 16.6328 22.0617C16.6328 21.8497 16.7968 21.6777 17.0008 21.6777C17.2021 21.6777 17.3661 21.8497 17.3661 22.0617Z" fill="#1D0A32" stroke="#1D0A32" stroke-width="1.33333" stroke-linecap="round" stroke-linejoin="round"/>
<path d="M30.326 23.3423C31.5487 16.6743 30.4787 14.9656 29.3613 14.1389C28.95 13.8349 28.324 13.8609 27.7727 13.9116C24.9933 14.1663 22.1462 17.2861 18.9995 16.3327C17.3909 15.8447 17.9749 14.3896 18.3329 14.1389C18.3329 14.1389 14.809 16.6661 13.6662 15.3327C11.6662 12.9994 17.4423 10.3779 18.3329 9.99939C21.2784 8.74759 25.8992 8.25155 28.7667 9.10694C30.0677 9.49458 30.9995 9.99939 31.6662 10.9173C31.6662 10.9173 32.9995 8.99939 33.9995 9.66605C34.9995 10.3327 33.3329 11.9994 33.3329 11.9994C33.3329 11.9994 34.6662 10.9173 35.3329 11.6661C35.9995 12.4148 34.6662 13.6661 34.6662 13.6661C35.6662 16.3327 37.3329 22.3327 32.9995 25.9994C32.9995 27.9994 33.9995 27.9994 35.6662 29.6661C37.6938 31.6937 35.6662 33.6661 34.1143 31.9994C35.2801 34.9139 31.3329 35.3327 30.3329 29.3327" stroke="#1D0A32" stroke-width="1.33333" stroke-linecap="round" stroke-linejoin="round"/>
</g>
<defs>
<clipPath id="clip0_69_6046">
<rect width="32" height="32" fill="white" transform="translate(9 8)"/>
</clipPath>
</defs>
</svg>
