<svg width="48" height="48" viewBox="0 0 48 48" fill="none" xmlns="http://www.w3.org/2000/svg">
<circle opacity="0.75" cx="24" cy="24" r="24" fill="white"/>
<g clip-path="url(#clip0_69_6076)">
<path fill-rule="evenodd" clip-rule="evenodd" d="M35.3235 28.832C36.2951 29.0799 37.16 29.5944 37.8357 30.2932C37.53 30.5365 37.3346 30.9122 37.3346 31.3335C37.3346 32.0699 37.9316 32.6669 38.668 32.6669C38.8353 32.6669 38.9955 32.636 39.1431 32.5797L39.1777 32.7108C39.2802 33.1237 39.3346 33.5556 39.3346 34.0002C39.3346 34.4448 39.2802 34.8767 39.1777 35.2896L39.1431 35.4207C38.9955 35.3644 38.8353 35.3335 38.668 35.3335C37.9316 35.3335 37.3346 35.9305 37.3346 36.6669C37.3346 37.0882 37.53 37.4638 37.8352 37.7082C37.1601 38.4059 36.2951 38.9205 35.3235 39.1684C35.2428 38.5096 34.6815 38.0002 34.0013 38.0002C33.3211 38.0002 32.7598 38.5096 32.6782 39.1677C31.7075 38.9205 30.8425 38.4059 30.1669 37.7072C30.4726 37.4638 30.668 37.0882 30.668 36.6669C30.668 35.9305 30.071 35.3335 29.3346 35.3335C29.1673 35.3335 29.0071 35.3644 28.8595 35.4207L28.8249 35.2896C28.7224 34.8767 28.668 34.4448 28.668 34.0002C28.668 33.5556 28.7224 33.1237 28.8249 32.7108L28.8595 32.5797C29.0071 32.636 29.1673 32.6669 29.3346 32.6669C30.071 32.6669 30.668 32.0699 30.668 31.3335C30.668 30.9122 30.4726 30.5365 30.1674 30.2922C30.8426 29.5944 31.7075 29.0799 32.6791 28.832C32.7601 29.4911 33.3212 30.0002 34.0013 30.0002C34.6707 30.0002 35.2249 29.5068 35.3202 28.8639L35.3235 28.832Z" stroke="#1D0A32" stroke-width="1.33333" stroke-linecap="round" stroke-linejoin="round"/>
<path d="M34.0007 34.6663C34.3688 34.6663 34.6673 34.3679 34.6673 33.9997C34.6673 33.6315 34.3688 33.333 34.0007 33.333C33.6325 33.333 33.334 33.6315 33.334 33.9997C33.334 34.3679 33.6325 34.6663 34.0007 34.6663Z" stroke="#1D0A32" stroke-width="1.33333" stroke-linecap="round" stroke-linejoin="round"/>
<path fill-rule="evenodd" clip-rule="evenodd" d="M35.1125 9C36.0125 9.29138 36.8219 9.7981 37.4854 10.4625C37.1451 10.7978 36.934 11.2677 36.934 11.7881C36.934 12.8048 37.7399 13.6289 38.734 13.6289C38.888 13.6289 39.0376 13.6091 39.1803 13.5719C39.2808 14.0265 39.334 14.5006 39.334 14.9876C39.334 15.5941 39.2515 16.1806 39.0976 16.7353C38.9803 16.7099 38.8586 16.697 38.734 16.697C37.7399 16.697 36.934 17.5211 36.934 18.5378C36.934 18.9663 37.0772 19.3607 37.3174 19.6736C36.668 20.2776 35.8908 20.7361 35.0338 21.0001C34.7888 20.2806 34.1203 19.765 33.334 19.765C32.5477 19.765 31.8792 20.2806 31.634 20.9992C30.7772 20.7361 30 20.2776 29.3494 19.6736C29.5908 19.3607 29.734 18.9663 29.734 18.5378C29.734 17.5211 28.9281 16.697 27.934 16.697C27.8094 16.697 27.6877 16.7099 27.5702 16.7346C27.4165 16.1806 27.334 15.5941 27.334 14.9876C27.334 14.5006 27.3872 14.0265 27.4878 13.5715C27.6304 13.6091 27.7799 13.6289 27.934 13.6289C28.9281 13.6289 29.734 12.8048 29.734 11.7881C29.734 11.2677 29.5229 10.7978 29.1834 10.463C29.8461 9.7981 30.6555 9.29138 31.5555 9C31.6871 9.88435 32.4333 10.5609 33.334 10.5609C34.2176 10.5609 34.9526 9.90971 35.105 9.05097L35.1125 9Z" stroke="#1D0A32" stroke-width="1.33333" stroke-linecap="round" stroke-linejoin="round"/>
<path d="M33.3333 16.3337C34.0697 16.3337 34.6667 15.7367 34.6667 15.0003C34.6667 14.2639 34.0697 13.667 33.3333 13.667C32.597 13.667 32 14.2639 32 15.0003C32 15.7367 32.597 16.3337 33.3333 16.3337Z" stroke="#1D0A32" stroke-width="1.33333" stroke-linecap="round" stroke-linejoin="round"/>
<path fill-rule="evenodd" clip-rule="evenodd" d="M18.668 16C19.3713 16 20.0577 16.0726 20.7201 16.2108C20.686 16.3572 20.668 16.5098 20.668 16.6667C20.668 17.7712 21.5634 18.6667 22.668 18.6667C23.3677 18.6667 23.9835 18.3073 24.3409 17.7632C25.3429 18.4551 26.2129 19.3251 26.9046 20.3276C26.3606 20.6845 26.0013 21.3003 26.0013 22C26.0013 23.1046 26.8967 24 28.0013 24C28.1582 24 28.3108 23.9819 28.4572 23.9478C28.5954 24.6102 28.668 25.2966 28.668 26C28.668 26.7034 28.5954 27.3898 28.4572 28.0521C28.3108 28.0181 28.1582 28 28.0013 28C26.8967 28 26.0013 28.8954 26.0013 30C26.0013 30.6997 26.3606 31.3155 26.9048 31.6729C26.2129 32.6749 25.3429 33.5449 24.3403 34.2367C23.9835 33.6927 23.3677 33.3333 22.668 33.3333C21.5634 33.3333 20.668 34.2288 20.668 35.3333C20.668 35.4902 20.686 35.6428 20.7202 35.7893C20.0577 35.9274 19.3713 36 18.668 36C17.9646 36 17.2782 35.9274 16.6159 35.7892C16.6499 35.6428 16.668 35.4902 16.668 35.3333C16.668 34.2288 15.7725 33.3333 14.668 33.3333C13.9683 33.3333 13.3525 33.6927 12.9951 34.2369C11.9931 33.5449 11.123 32.6749 10.4313 31.6724C10.9753 31.3155 11.3346 30.6997 11.3346 30C11.3346 28.8954 10.4392 28 9.33464 28C9.17778 28 9.02515 28.0181 8.8787 28.0522C8.74058 27.3898 8.66797 26.7034 8.66797 26C8.66797 25.2966 8.74058 24.6102 8.87873 23.9479C9.02515 23.9819 9.17778 24 9.33464 24C10.4392 24 11.3346 23.1046 11.3346 22C11.3346 21.3003 10.9753 20.6845 10.4311 20.3271C11.123 19.3251 11.9931 18.4551 12.9956 17.7633C13.3525 18.3073 13.9683 18.6667 14.668 18.6667C15.7725 18.6667 16.668 17.7712 16.668 16.6667C16.668 16.5098 16.6499 16.3572 16.6158 16.2107C17.2782 16.0726 17.9646 16 18.668 16Z" stroke="#1D0A32" stroke-width="1.33333" stroke-linecap="round" stroke-linejoin="round"/>
<path d="M21.3322 21.3795C20.5481 20.9263 19.638 20.667 18.6673 20.667C15.7218 20.667 13.334 23.0548 13.334 26.0003C13.334 28.9458 15.7218 31.3337 18.6673 31.3337C21.6128 31.3337 24.0007 28.9458 24.0007 26.0003C24.0007 25.7904 23.9885 25.5832 23.9649 25.3796" stroke="#1D0A32" stroke-width="1.33333" stroke-linecap="round" stroke-linejoin="round"/>
<path d="M18.6673 27.3337C19.4037 27.3337 20.0007 26.7367 20.0007 26.0003C20.0007 25.2639 19.4037 24.667 18.6673 24.667C17.9309 24.667 17.334 25.2639 17.334 26.0003C17.334 26.7367 17.9309 27.3337 18.6673 27.3337Z" stroke="#1D0A32" stroke-width="1.33333" stroke-linecap="round" stroke-linejoin="round"/>
</g>
<defs>
<clipPath id="clip0_69_6076">
<rect width="32" height="32" fill="white" transform="translate(8 8)"/>
</clipPath>
</defs>
</svg>
