<svg width="48" height="49" viewBox="0 0 48 49" fill="none" xmlns="http://www.w3.org/2000/svg">
<circle opacity="0.15" cx="24" cy="24.5" r="24" fill="#1E0A3C"/>
<path fill-rule="evenodd" clip-rule="evenodd" d="M17.3386 9.66699L15.9993 15.667C15.9993 17.1397 14.8054 18.3336 13.3327 18.3336C11.8599 18.3336 10.666 17.1397 10.666 15.667C10.666 15.4571 10.6903 15.2529 10.7361 15.057L10.7271 15.0561L10.7604 14.9611C10.7983 14.8228 10.847 14.6889 10.9057 14.5606L12.6732 9.66699H17.3386Z" stroke="#1D0A32" stroke-width="1.33333" stroke-linecap="round" stroke-linejoin="round"/>
<path fill-rule="evenodd" clip-rule="evenodd" d="M17.3393 9.66699H22.0059L21.3333 15.667C21.3333 17.1397 20.1394 18.3336 18.6667 18.3336C17.1939 18.3336 16 17.1397 16 15.667L17.3393 9.66699Z" stroke="#1D0A32" stroke-width="1.33333" stroke-linecap="round" stroke-linejoin="round"/>
<path fill-rule="evenodd" clip-rule="evenodd" d="M25.9995 9.66699L26.602 15.0864C26.6435 15.2733 26.6653 15.4676 26.6653 15.667C26.6653 17.1397 25.4714 18.3336 23.9987 18.3336C22.5259 18.3336 21.332 17.1397 21.332 15.667C21.332 15.4635 21.3548 15.2654 21.398 15.075L22.0046 9.66699H25.9995Z" stroke="#1D0A32" stroke-width="1.33333" stroke-linecap="round" stroke-linejoin="round"/>
<path fill-rule="evenodd" clip-rule="evenodd" d="M26 9.66699H30.6673L31.9991 15.667C31.9991 17.1397 30.8052 18.3336 29.3325 18.3336C27.8597 18.3336 26.6658 17.1397 26.6658 15.667L26 9.66699Z" stroke="#1D0A32" stroke-width="1.33333" stroke-linecap="round" stroke-linejoin="round"/>
<path fill-rule="evenodd" clip-rule="evenodd" d="M30.668 9.66699H35.3521L37.1628 14.7271C37.1739 14.7567 37.1845 14.7865 37.1946 14.8165L37.2703 15.0293L37.2567 15.0305C37.3066 15.2345 37.3331 15.4476 37.3331 15.667C37.3331 17.1397 36.1392 18.3336 34.6664 18.3336C33.1937 18.3336 31.9998 17.1397 31.9998 15.667L30.668 9.66699Z" stroke="#1D0A32" stroke-width="1.33333" stroke-linecap="round" stroke-linejoin="round"/>
<path d="M35.3326 27.667H12.666C11.5614 27.667 10.666 28.5624 10.666 29.667V38.3336C10.666 39.4382 11.5614 40.3336 12.666 40.3336H35.3326C36.4372 40.3336 37.3326 39.4382 37.3326 38.3336V29.667C37.3326 28.5624 36.4372 27.667 35.3326 27.667Z" stroke="#1D0A32" stroke-width="1.33333" stroke-linecap="round" stroke-linejoin="round"/>
<path d="M17.338 18.334V27.6673H13.332V18.334" stroke="#1D0A32" stroke-width="1.33333" stroke-linecap="round" stroke-linejoin="round"/>
<path d="M34.6719 18.334V27.6673H30.666V18.334" stroke="#1D0A32" stroke-width="1.33333" stroke-linecap="round" stroke-linejoin="round"/>
<path d="M24 31H18V37H30V31H28" stroke="#1D0A32" stroke-width="1.33333" stroke-linecap="round" stroke-linejoin="round"/>
</svg>
