<svg width="48" height="49" viewBox="0 0 48 49" fill="none" xmlns="http://www.w3.org/2000/svg">
<circle opacity="0.15" cx="24" cy="24.5" r="24" fill="#1E0A3C"/>
<g clip-path="url(#clip0_69_6032)">
<path d="M24.4334 30.4225C24.4334 30.4225 23.3838 31.5399 22.838 32.1548L15.5039 23.7598C22.5505 15.8006 23.6584 17.5751 30.3674 9.73438L37.713 18.1483C33.4574 22.781 30.8393 24.232 26.8778 27.9912" stroke="#1D0A32" stroke-width="1.33333" stroke-linecap="round" stroke-linejoin="round"/>
<path fill-rule="evenodd" clip-rule="evenodd" d="M28.8952 20.1404C29.2742 21.2213 28.705 22.4049 27.6242 22.7839C26.5432 23.1628 25.3596 22.5937 24.9806 21.5128C24.6017 20.4319 25.1708 19.2483 26.2517 18.8693C27.3326 18.4903 28.5162 19.0595 28.8952 20.1404Z" stroke="#1D0A32" stroke-width="1.33333" stroke-linecap="round" stroke-linejoin="round"/>
<path fill-rule="evenodd" clip-rule="evenodd" d="M32.1234 16.8113C32.3128 17.3515 32.028 17.9437 31.4878 18.1331C30.9472 18.3227 30.3555 18.0377 30.1661 17.4975C29.9767 16.9573 30.2609 16.3653 30.8016 16.1758C31.3418 15.9864 31.934 16.2711 32.1234 16.8113Z" stroke="#1D0A32" stroke-width="1.33333" stroke-linecap="round" stroke-linejoin="round"/>
<path fill-rule="evenodd" clip-rule="evenodd" d="M23.7113 24.157C23.9007 24.6972 23.6159 25.2894 23.0757 25.4788C22.535 25.6683 21.9434 25.3834 21.754 24.8432C21.5646 24.303 21.8488 23.7111 22.3895 23.5215C22.9297 23.3321 23.5219 23.6168 23.7113 24.157Z" stroke="#1D0A32" stroke-width="1.33333" stroke-linecap="round" stroke-linejoin="round"/>
<path d="M24.1243 15.8835C22.6647 15.5808 21.0501 15.7739 20.109 16.0234C14.4372 17.5275 11.0512 23.3169 12.5462 28.9545C14.0412 34.5921 19.851 37.943 25.5228 36.439C28.5703 35.6308 30.9579 33.5856 32.283 30.9914L31.1323 31.441C30.3975 31.7281 29.569 31.3652 29.2819 30.6304C28.9947 29.8955 29.3577 29.067 30.0925 28.7799L34.7399 26.964C35.1191 26.8158 35.5436 26.8365 35.9066 27.0209C36.2697 27.2053 36.5367 27.5357 36.6409 27.9294L37.8911 32.6573C38.0927 33.42 37.6379 34.2018 36.8752 34.4035C36.1125 34.6052 35.3307 34.1504 35.1289 33.3876L34.9333 32.6475C33.1941 35.8829 30.1619 38.4222 26.319 39.4412C18.979 41.3877 11.4603 37.0512 9.52565 29.7555C7.59097 22.4598 11.9728 14.9675 19.3129 13.0211C21.8593 12.3458 24.4273 12.4268 26.7761 13.1251" stroke="#1D0A32" stroke-width="1.33333" stroke-linecap="round" stroke-linejoin="round"/>
</g>
<defs>
<clipPath id="clip0_69_6032">
<rect width="32" height="32" fill="white" transform="translate(8 9)"/>
</clipPath>
</defs>
</svg>
