<svg width="48" height="49" viewBox="0 0 48 49" fill="none" xmlns="http://www.w3.org/2000/svg">
<circle opacity="0.15" cx="24" cy="24.5" r="24" fill="#F05537"/>
<path fill-rule="evenodd" clip-rule="evenodd" d="M14.4079 20.2597C14.4754 20.589 14.2642 20.9104 13.9349 20.9785C13.6057 21.0461 13.2831 20.8343 13.2155 20.505C13.1486 20.1757 13.3598 19.8537 13.689 19.7862C14.0183 19.718 14.3409 19.9304 14.4079 20.2597Z" stroke="#F05537" stroke-width="1.21731" stroke-linecap="round" stroke-linejoin="round"/>
<path fill-rule="evenodd" clip-rule="evenodd" d="M21.7127 18.789C21.7803 19.1183 21.5685 19.4397 21.2398 19.5078C20.9105 19.5754 20.5879 19.363 20.5204 19.0337C20.4528 18.7044 20.6646 18.383 20.9939 18.3155C21.3232 18.2473 21.6452 18.4597 21.7127 18.789Z" stroke="#F05537" stroke-width="1.21731" stroke-linecap="round" stroke-linejoin="round"/>
<path fill-rule="evenodd" clip-rule="evenodd" d="M18.0602 19.5247C18.1278 19.854 17.916 20.176 17.5868 20.2442C17.2581 20.3117 16.9356 20.0993 16.868 19.77C16.8005 19.4408 17.0123 19.1194 17.3415 19.0518C17.6707 18.9837 17.9927 19.1955 18.0602 19.5247Z" stroke="#F05537" stroke-width="1.21731" stroke-linecap="round" stroke-linejoin="round"/>
<path d="M21.7244 12.2168L8.33398 14.6514L9.43142 20.1792C10.0894 20.0441 10.7333 20.4677 10.8684 21.1263C11.0042 21.7849 10.5799 22.4288 9.92199 22.5639L12.5946 38.9976L26.5936 36.563V35.3453" stroke="#F05537" stroke-width="1.21731" stroke-linecap="round" stroke-linejoin="round"/>
<path d="M12.2793 35.3454L21.7243 33.7051" stroke="#F05537" stroke-width="1.21731" stroke-linecap="round" stroke-linejoin="round"/>
<path fill-rule="evenodd" clip-rule="evenodd" d="M36.3323 11V15.8696C35.66 15.8696 35.115 16.4146 35.115 17.0869C35.115 17.7592 35.66 18.3042 36.3323 18.3042V35.3462H21.7246V18.3042C22.3969 18.3042 22.9419 17.7592 22.9419 17.0869C22.9419 16.4146 22.3969 15.8696 21.7246 15.8696V11L36.3323 11Z" stroke="#F05537" stroke-width="1.21731" stroke-linecap="round" stroke-linejoin="round"/>
<path fill-rule="evenodd" clip-rule="evenodd" d="M25.9849 17.0872C25.9849 17.4231 25.7122 17.6958 25.3762 17.6958C25.0396 17.6958 24.7676 17.4231 24.7676 17.0872C24.7676 16.7506 25.0396 16.4785 25.3762 16.4785C25.7122 16.4785 25.9849 16.7506 25.9849 17.0872Z" stroke="#F05537" stroke-width="1.21731" stroke-linecap="round" stroke-linejoin="round"/>
<path fill-rule="evenodd" clip-rule="evenodd" d="M33.289 17.0872C33.289 17.4231 33.0169 17.6958 32.6803 17.6958C32.3443 17.6958 32.0723 17.4231 32.0723 17.0872C32.0723 16.7506 32.3443 16.4785 32.6803 16.4785C33.0169 16.4785 33.289 16.7506 33.289 17.0872Z" stroke="#F05537" stroke-width="1.21731" stroke-linecap="round" stroke-linejoin="round"/>
<path fill-rule="evenodd" clip-rule="evenodd" d="M29.6366 17.0872C29.6366 17.4231 29.3646 17.6958 29.028 17.6958C28.692 17.6958 28.4199 17.4231 28.4199 17.0872C28.4199 16.7506 28.692 16.4785 29.028 16.4785C29.3646 16.4785 29.6366 16.7506 29.6366 17.0872Z" stroke="#F05537" stroke-width="1.21731" stroke-linecap="round" stroke-linejoin="round"/>
<path d="M21.7246 31.6953H24.7679M28.4198 31.6953H36.3329" stroke="#F05537" stroke-width="1.21731" stroke-linecap="round" stroke-linejoin="round"/>
</svg>
